<mxfile host="app.diagrams.net" modified="2023-08-11T07:41:42.702Z" agent="Mozilla/5.0 (X11; Linux x86_64) AppleWebKit/537.36 (KHTML, like Gecko) Chrome/112.0.0.0 Safari/537.36" etag="E7eyqK5KkBo5Iwfu4ovB" version="21.5.0" type="github">
  <diagram name="第 1 页" id="jMkZkXqh-wtQjJAEluj4">
    <mxGraphModel dx="1687" dy="858" grid="1" gridSize="10" guides="1" tooltips="1" connect="0" arrows="1" fold="1" page="1" pageScale="1" pageWidth="1169" pageHeight="827" math="0" shadow="0">
      <root>
        <mxCell id="0" />
        <mxCell id="1" parent="0" />
        <mxCell id="rQV952CkL7aoKL0LQJh--25" value="" style="rounded=0;whiteSpace=wrap;html=1;labelBackgroundColor=none;fillColor=none;dashed=1;dashPattern=12 12;" vertex="1" parent="1">
          <mxGeometry x="380" y="295" width="120" height="330" as="geometry" />
        </mxCell>
        <mxCell id="rQV952CkL7aoKL0LQJh--4" value="" style="edgeStyle=orthogonalEdgeStyle;rounded=0;orthogonalLoop=1;jettySize=auto;html=1;" edge="1" parent="1" source="rQV952CkL7aoKL0LQJh--2" target="rQV952CkL7aoKL0LQJh--3">
          <mxGeometry relative="1" as="geometry" />
        </mxCell>
        <mxCell id="rQV952CkL7aoKL0LQJh--2" value="问题" style="ellipse;whiteSpace=wrap;html=1;aspect=fixed;fontSize=18;spacing=18;" vertex="1" parent="1">
          <mxGeometry x="80" y="80" width="80" height="80" as="geometry" />
        </mxCell>
        <mxCell id="rQV952CkL7aoKL0LQJh--7" value="" style="edgeStyle=orthogonalEdgeStyle;rounded=0;orthogonalLoop=1;jettySize=auto;html=1;" edge="1" parent="1" source="rQV952CkL7aoKL0LQJh--3" target="rQV952CkL7aoKL0LQJh--6">
          <mxGeometry relative="1" as="geometry" />
        </mxCell>
        <mxCell id="rQV952CkL7aoKL0LQJh--10" value="" style="edgeStyle=orthogonalEdgeStyle;rounded=0;orthogonalLoop=1;jettySize=auto;html=1;" edge="1" parent="1" source="rQV952CkL7aoKL0LQJh--3" target="rQV952CkL7aoKL0LQJh--9">
          <mxGeometry relative="1" as="geometry" />
        </mxCell>
        <mxCell id="rQV952CkL7aoKL0LQJh--3" value="数学&lt;br&gt;问题" style="ellipse;whiteSpace=wrap;html=1;aspect=fixed;fontSize=18;spacingTop=0;spacing=10;" vertex="1" parent="1">
          <mxGeometry x="240" y="80" width="80" height="80" as="geometry" />
        </mxCell>
        <mxCell id="rQV952CkL7aoKL0LQJh--5" value="抽象" style="text;html=1;align=center;verticalAlign=middle;resizable=0;points=[];autosize=1;strokeColor=none;fillColor=none;" vertex="1" parent="1">
          <mxGeometry x="175" y="90" width="50" height="30" as="geometry" />
        </mxCell>
        <mxCell id="rQV952CkL7aoKL0LQJh--6" value="理论&lt;br&gt;解法" style="ellipse;whiteSpace=wrap;html=1;fontSize=18;spacing=10;" vertex="1" parent="1">
          <mxGeometry x="400" y="80" width="80" height="80" as="geometry" />
        </mxCell>
        <mxCell id="rQV952CkL7aoKL0LQJh--8" value="分析求解" style="text;html=1;align=center;verticalAlign=middle;resizable=0;points=[];autosize=1;strokeColor=none;fillColor=none;" vertex="1" parent="1">
          <mxGeometry x="325" y="88" width="70" height="30" as="geometry" />
        </mxCell>
        <mxCell id="rQV952CkL7aoKL0LQJh--29" value="" style="edgeStyle=orthogonalEdgeStyle;rounded=0;orthogonalLoop=1;jettySize=auto;html=1;" edge="1" parent="1" source="rQV952CkL7aoKL0LQJh--9" target="rQV952CkL7aoKL0LQJh--25">
          <mxGeometry relative="1" as="geometry" />
        </mxCell>
        <mxCell id="rQV952CkL7aoKL0LQJh--9" value="新问题模型" style="ellipse;whiteSpace=wrap;html=1;fontSize=18;spacingTop=0;spacing=10;" vertex="1" parent="1">
          <mxGeometry x="240" y="420" width="80" height="80" as="geometry" />
        </mxCell>
        <mxCell id="rQV952CkL7aoKL0LQJh--11" value="&lt;p style=&quot;line-height: 150%; font-size: 15px;&quot;&gt;分析实际情况&lt;br&gt;添加额外条件/约束条件&lt;/p&gt;" style="text;html=1;align=center;verticalAlign=middle;resizable=0;points=[];autosize=1;strokeColor=none;fillColor=none;" vertex="1" parent="1">
          <mxGeometry x="270" y="180" width="180" height="90" as="geometry" />
        </mxCell>
        <mxCell id="rQV952CkL7aoKL0LQJh--12" value="解法1" style="ellipse;whiteSpace=wrap;html=1;fontSize=18;spacingTop=0;spacing=10;" vertex="1" parent="1">
          <mxGeometry x="400" y="330" width="80" height="80" as="geometry" />
        </mxCell>
        <mxCell id="rQV952CkL7aoKL0LQJh--21" value="解法2" style="ellipse;whiteSpace=wrap;html=1;fontSize=18;spacingTop=0;spacing=10;" vertex="1" parent="1">
          <mxGeometry x="400" y="420" width="80" height="80" as="geometry" />
        </mxCell>
        <mxCell id="rQV952CkL7aoKL0LQJh--24" value="解法3" style="ellipse;whiteSpace=wrap;html=1;fontSize=18;spacingTop=0;spacing=10;" vertex="1" parent="1">
          <mxGeometry x="400" y="510" width="80" height="80" as="geometry" />
        </mxCell>
        <mxCell id="rQV952CkL7aoKL0LQJh--27" value="" style="edgeStyle=orthogonalEdgeStyle;rounded=0;orthogonalLoop=1;jettySize=auto;html=1;" edge="1" parent="1" source="rQV952CkL7aoKL0LQJh--25" target="rQV952CkL7aoKL0LQJh--26">
          <mxGeometry relative="1" as="geometry" />
        </mxCell>
        <mxCell id="rQV952CkL7aoKL0LQJh--35" value="" style="edgeStyle=orthogonalEdgeStyle;rounded=0;orthogonalLoop=1;jettySize=auto;html=1;" edge="1" parent="1" source="rQV952CkL7aoKL0LQJh--26">
          <mxGeometry relative="1" as="geometry">
            <mxPoint x="860" y="460" as="targetPoint" />
          </mxGeometry>
        </mxCell>
        <mxCell id="rQV952CkL7aoKL0LQJh--26" value="" style="rounded=0;whiteSpace=wrap;html=1;labelBackgroundColor=none;fillColor=none;dashed=1;dashPattern=12 12;" vertex="1" parent="1">
          <mxGeometry x="640" y="295" width="120" height="330" as="geometry" />
        </mxCell>
        <mxCell id="rQV952CkL7aoKL0LQJh--30" value="实现&lt;br&gt;方案1" style="ellipse;whiteSpace=wrap;html=1;fontSize=18;spacingTop=0;spacing=10;" vertex="1" parent="1">
          <mxGeometry x="660" y="330" width="80" height="80" as="geometry" />
        </mxCell>
        <mxCell id="rQV952CkL7aoKL0LQJh--31" value="实现&lt;br&gt;方案2" style="ellipse;whiteSpace=wrap;html=1;fontSize=18;spacingTop=0;spacing=10;" vertex="1" parent="1">
          <mxGeometry x="660" y="420" width="80" height="80" as="geometry" />
        </mxCell>
        <mxCell id="rQV952CkL7aoKL0LQJh--32" value="实现&lt;br&gt;方案3" style="ellipse;whiteSpace=wrap;html=1;fontSize=18;spacingTop=0;spacing=10;" vertex="1" parent="1">
          <mxGeometry x="660" y="510" width="80" height="80" as="geometry" />
        </mxCell>
        <mxCell id="rQV952CkL7aoKL0LQJh--33" value="&lt;p style=&quot;line-height: 150%; font-size: 15px;&quot;&gt;考虑硬件条件&lt;br&gt;设计实现方案&lt;/p&gt;" style="text;html=1;align=center;verticalAlign=middle;resizable=0;points=[];autosize=1;strokeColor=none;fillColor=none;" vertex="1" parent="1">
          <mxGeometry x="515" y="392" width="110" height="90" as="geometry" />
        </mxCell>
        <mxCell id="rQV952CkL7aoKL0LQJh--41" value="" style="edgeStyle=orthogonalEdgeStyle;rounded=0;orthogonalLoop=1;jettySize=auto;html=1;" edge="1" parent="1" source="rQV952CkL7aoKL0LQJh--37" target="rQV952CkL7aoKL0LQJh--40">
          <mxGeometry relative="1" as="geometry" />
        </mxCell>
        <mxCell id="rQV952CkL7aoKL0LQJh--37" value="最优&lt;br&gt;方案" style="ellipse;whiteSpace=wrap;html=1;fontSize=18;spacingTop=0;spacing=10;" vertex="1" parent="1">
          <mxGeometry x="860" y="420" width="80" height="80" as="geometry" />
        </mxCell>
        <mxCell id="rQV952CkL7aoKL0LQJh--39" value="&lt;p style=&quot;line-height: 150%;&quot;&gt;&lt;font style=&quot;font-size: 15px;&quot;&gt;评估性能&lt;/font&gt;&lt;/p&gt;" style="text;html=1;align=center;verticalAlign=middle;resizable=0;points=[];autosize=1;strokeColor=none;fillColor=none;" vertex="1" parent="1">
          <mxGeometry x="767" y="416" width="80" height="60" as="geometry" />
        </mxCell>
        <mxCell id="rQV952CkL7aoKL0LQJh--40" value="代码" style="ellipse;whiteSpace=wrap;html=1;fontSize=18;spacingTop=0;spacing=10;" vertex="1" parent="1">
          <mxGeometry x="1020" y="420" width="80" height="80" as="geometry" />
        </mxCell>
        <mxCell id="rQV952CkL7aoKL0LQJh--42" value="&lt;p style=&quot;line-height: 150%;&quot;&gt;&lt;font style=&quot;font-size: 15px;&quot;&gt;编码实现&lt;/font&gt;&lt;/p&gt;" style="text;html=1;align=center;verticalAlign=middle;resizable=0;points=[];autosize=1;strokeColor=none;fillColor=none;" vertex="1" parent="1">
          <mxGeometry x="937" y="417" width="80" height="60" as="geometry" />
        </mxCell>
      </root>
    </mxGraphModel>
  </diagram>
</mxfile>
